<mxfile host="www.draw.io" modified="2019-11-17T11:01:26.218Z" agent="Mozilla/5.0 (Windows NT 10.0; Win64; x64) AppleWebKit/537.36 (KHTML, like Gecko) Chrome/78.0.3904.97 Safari/537.36" etag="uqdslcfRTSRHAPE8tIz8" version="12.2.6" type="github" pages="1">
  <diagram id="ht-fG4n_-JmSU7EIksZj" name="Page-1">
    <mxGraphModel dx="1024" dy="534" grid="1" gridSize="10" guides="1" tooltips="1" connect="1" arrows="1" fold="1" page="1" pageScale="1" pageWidth="827" pageHeight="1169" math="0" shadow="0">
      <root>
        <mxCell id="0"/>
        <mxCell id="1" parent="0"/>
        <mxCell id="U70fXw84yEbCqGNwoWJ3-15" style="edgeStyle=orthogonalEdgeStyle;rounded=0;orthogonalLoop=1;jettySize=auto;html=1;exitX=1;exitY=0.25;exitDx=0;exitDy=0;entryX=0.006;entryY=0.304;entryDx=0;entryDy=0;entryPerimeter=0;endArrow=none;endFill=0;" edge="1" parent="1" source="U70fXw84yEbCqGNwoWJ3-1" target="U70fXw84yEbCqGNwoWJ3-3">
          <mxGeometry relative="1" as="geometry"/>
        </mxCell>
        <mxCell id="U70fXw84yEbCqGNwoWJ3-19" style="edgeStyle=orthogonalEdgeStyle;rounded=0;orthogonalLoop=1;jettySize=auto;html=1;entryX=0.25;entryY=0;entryDx=0;entryDy=0;endArrow=none;endFill=0;" edge="1" parent="1" source="U70fXw84yEbCqGNwoWJ3-1" target="U70fXw84yEbCqGNwoWJ3-13">
          <mxGeometry relative="1" as="geometry"/>
        </mxCell>
        <mxCell id="U70fXw84yEbCqGNwoWJ3-1" value="&lt;p style=&quot;margin: 0px ; margin-top: 4px ; text-align: center ; text-decoration: underline&quot;&gt;&lt;b&gt;usr: User&lt;/b&gt;&lt;/p&gt;&lt;hr&gt;&lt;p style=&quot;margin: 0px ; margin-left: 8px&quot;&gt;+name= ABC&lt;br&gt;+enroll= 1601DMBIT00997&lt;br&gt;+class= IT-C&lt;/p&gt;&lt;p style=&quot;margin: 0px ; margin-left: 8px&quot;&gt;+photo= xxxxxxxx&lt;/p&gt;&lt;p style=&quot;margin: 0px ; margin-left: 8px&quot;&gt;+qrcode= xxxxxxxx&lt;/p&gt;" style="verticalAlign=top;align=left;overflow=fill;fontSize=12;fontFamily=Helvetica;html=1;" vertex="1" parent="1">
          <mxGeometry x="80" y="60" width="160" height="130" as="geometry"/>
        </mxCell>
        <mxCell id="U70fXw84yEbCqGNwoWJ3-16" style="edgeStyle=orthogonalEdgeStyle;rounded=0;orthogonalLoop=1;jettySize=auto;html=1;entryX=0;entryY=0.5;entryDx=0;entryDy=0;endArrow=none;endFill=0;" edge="1" parent="1" source="U70fXw84yEbCqGNwoWJ3-3" target="U70fXw84yEbCqGNwoWJ3-4">
          <mxGeometry relative="1" as="geometry"/>
        </mxCell>
        <mxCell id="U70fXw84yEbCqGNwoWJ3-18" style="edgeStyle=orthogonalEdgeStyle;rounded=0;orthogonalLoop=1;jettySize=auto;html=1;entryX=0.875;entryY=0;entryDx=0;entryDy=0;entryPerimeter=0;endArrow=none;endFill=0;" edge="1" parent="1" source="U70fXw84yEbCqGNwoWJ3-3" target="U70fXw84yEbCqGNwoWJ3-13">
          <mxGeometry relative="1" as="geometry"/>
        </mxCell>
        <mxCell id="U70fXw84yEbCqGNwoWJ3-3" value="&lt;p style=&quot;margin: 0px ; margin-top: 4px ; text-align: center ; text-decoration: underline&quot;&gt;&lt;b&gt;profile: UserProfile&lt;/b&gt;&lt;/p&gt;&lt;hr&gt;&lt;p style=&quot;margin: 0px ; margin-left: 8px&quot;&gt;+name= ABC&lt;br&gt;+enroll= 1601DMBIT00997&lt;br&gt;+class= IT-C&lt;/p&gt;&lt;p style=&quot;margin: 0px ; margin-left: 8px&quot;&gt;+photo= xxxxxxxx&lt;/p&gt;&lt;p style=&quot;margin: 0px ; margin-left: 8px&quot;&gt;+qrcode= xxxxxxxx&lt;/p&gt;&lt;p style=&quot;margin: 0px ; margin-left: 8px&quot;&gt;+isverified= true&lt;/p&gt;&lt;p style=&quot;margin: 0px ; margin-left: 8px&quot;&gt;+hasVoted= false&lt;/p&gt;" style="verticalAlign=top;align=left;overflow=fill;fontSize=12;fontFamily=Helvetica;html=1;" vertex="1" parent="1">
          <mxGeometry x="333" y="50" width="167" height="140" as="geometry"/>
        </mxCell>
        <mxCell id="U70fXw84yEbCqGNwoWJ3-17" style="edgeStyle=orthogonalEdgeStyle;rounded=0;orthogonalLoop=1;jettySize=auto;html=1;entryX=0.702;entryY=0.002;entryDx=0;entryDy=0;entryPerimeter=0;endArrow=none;endFill=0;" edge="1" parent="1" source="U70fXw84yEbCqGNwoWJ3-4" target="U70fXw84yEbCqGNwoWJ3-14">
          <mxGeometry relative="1" as="geometry"/>
        </mxCell>
        <mxCell id="U70fXw84yEbCqGNwoWJ3-4" value="&lt;p style=&quot;margin: 0px ; margin-top: 4px ; text-align: center ; text-decoration: underline&quot;&gt;&lt;b&gt;adm: Admin&lt;/b&gt;&lt;/p&gt;&lt;hr&gt;&lt;p style=&quot;margin: 0px ; margin-left: 8px&quot;&gt;+name= Admin&lt;br&gt;+id= 1&lt;br&gt;-password= xxxxxxx&lt;/p&gt;" style="verticalAlign=top;align=left;overflow=fill;fontSize=12;fontFamily=Helvetica;html=1;" vertex="1" parent="1">
          <mxGeometry x="580" y="55" width="160" height="125" as="geometry"/>
        </mxCell>
        <mxCell id="U70fXw84yEbCqGNwoWJ3-20" style="edgeStyle=orthogonalEdgeStyle;rounded=0;orthogonalLoop=1;jettySize=auto;html=1;entryX=-0.028;entryY=0.205;entryDx=0;entryDy=0;entryPerimeter=0;endArrow=none;endFill=0;" edge="1" parent="1" source="U70fXw84yEbCqGNwoWJ3-13" target="U70fXw84yEbCqGNwoWJ3-14">
          <mxGeometry relative="1" as="geometry"/>
        </mxCell>
        <mxCell id="U70fXw84yEbCqGNwoWJ3-13" value="&lt;p style=&quot;margin: 0px ; margin-top: 4px ; text-align: center ; text-decoration: underline&quot;&gt;&lt;b&gt;vt: Voting&lt;/b&gt;&lt;/p&gt;&lt;hr&gt;&lt;p style=&quot;margin: 0px ; margin-left: 8px&quot;&gt;+votingid: 123&lt;br style=&quot;padding: 0px ; margin: 0px&quot;&gt;+votinghashValue: 0xfg44....&lt;br style=&quot;padding: 0px ; margin: 0px&quot;&gt;+candidateId: 2&lt;br&gt;&lt;/p&gt;" style="verticalAlign=top;align=left;overflow=fill;fontSize=12;fontFamily=Helvetica;html=1;" vertex="1" parent="1">
          <mxGeometry x="190" y="340" width="160" height="130" as="geometry"/>
        </mxCell>
        <mxCell id="U70fXw84yEbCqGNwoWJ3-14" value="&lt;p style=&quot;margin: 0px ; margin-top: 4px ; text-align: center ; text-decoration: underline&quot;&gt;&lt;b&gt;rs: Result&lt;/b&gt;&lt;/p&gt;&lt;hr&gt;&lt;p style=&quot;margin: 0px ; margin-left: 8px&quot;&gt;+votingHashValue: string&lt;br style=&quot;padding: 0px ; margin: 0px&quot;&gt;+candidateId: integer&amp;nbsp;&lt;br style=&quot;padding: 0px ; margin: 0px&quot;&gt;+blockId: string&lt;br&gt;&lt;/p&gt;" style="verticalAlign=top;align=left;overflow=fill;fontSize=12;fontFamily=Helvetica;html=1;" vertex="1" parent="1">
          <mxGeometry x="520" y="350" width="160" height="130" as="geometry"/>
        </mxCell>
      </root>
    </mxGraphModel>
  </diagram>
</mxfile>
